<?xml version="1.0" encoding="UTF-8" standalone="no"?>
<!-- Created with Inkscape (http://www.inkscape.org/) -->

<svg
   width="10.019mm"
   height="5mm"
   viewBox="0 0 10.019 5"
   version="1.1"
   id="svg18066"
   sodipodi:docname="artificial_horizon_aguja.svg"
   inkscape:version="1.2.2 (732a01da63, 2022-12-09)"
   xmlns:inkscape="http://www.inkscape.org/namespaces/inkscape"
   xmlns:sodipodi="http://sodipodi.sourceforge.net/DTD/sodipodi-0.dtd"
   xmlns="http://www.w3.org/2000/svg"
   xmlns:svg="http://www.w3.org/2000/svg">
  <sodipodi:namedview
     id="namedview18068"
     pagecolor="#ffffff"
     bordercolor="#000000"
     borderopacity="0.25"
     inkscape:showpageshadow="2"
     inkscape:pageopacity="0.0"
     inkscape:pagecheckerboard="0"
     inkscape:deskcolor="#d1d1d1"
     inkscape:document-units="mm"
     showgrid="false"
     inkscape:zoom="16.206792"
     inkscape:cx="22.829935"
     inkscape:cy="9.9032554"
     inkscape:window-width="1920"
     inkscape:window-height="991"
     inkscape:window-x="-9"
     inkscape:window-y="-9"
     inkscape:window-maximized="1"
     inkscape:current-layer="layer1">
    <sodipodi:guide
       position="0,6.9999968"
       orientation="0,45.424646"
       id="guide18232"
       inkscape:locked="false" />
    <sodipodi:guide
       position="12.018605,6.9999968"
       orientation="18.897613,0"
       id="guide18234"
       inkscape:locked="false" />
    <sodipodi:guide
       position="12.018605,2.0000036"
       orientation="0,-45.424646"
       id="guide18236"
       inkscape:locked="false" />
    <sodipodi:guide
       position="0,2.0000036"
       orientation="-18.897613,0"
       id="guide18238"
       inkscape:locked="false" />
  </sodipodi:namedview>
  <defs
     id="defs18063" />
  <g
     inkscape:label="Capa 1"
     inkscape:groupmode="layer"
     id="layer1"
     transform="translate(-89.344726,-151.68552)">
    <ellipse
       cy="154.66144"
       cx="94.352554"
       id="circle1479"
       style="vector-effect:none;fill:#ff0000;fill-opacity:1;fill-rule:evenodd;stroke:none;stroke-width:0.000796155;stroke-linecap:butt;stroke-linejoin:miter;stroke-miterlimit:4;stroke-dasharray:none;stroke-dashoffset:0;stroke-opacity:1"
       rx="0.44638354"
       ry="0.44635713" />
    <ellipse
       style="vector-effect:none;fill:#ff0000;fill-opacity:1;fill-rule:evenodd;stroke:#000000;stroke-width:0.000796155;stroke-linecap:butt;stroke-linejoin:miter;stroke-miterlimit:4;stroke-dasharray:none;stroke-dashoffset:0;stroke-opacity:1"
       id="circle1811"
       cx="94.352554"
       cy="154.66144"
       rx="0.44638354"
       ry="0.44635713" />
    <path
       style="vector-effect:none;fill:#ff0000;fill-opacity:1;fill-rule:evenodd;stroke:none;stroke-width:0.017962;stroke-linecap:butt;stroke-linejoin:miter;stroke-miterlimit:4;stroke-dasharray:none;stroke-dashoffset:0;stroke-opacity:1"
       d="m 89.612768,154.29499 c -0.148455,0 -0.268042,0.11583 -0.268042,0.25971 0,0.14391 0.119594,0.25974 0.268042,0.25974 h 2.561273 c 0.130307,1.07066 1.04186,1.90028 2.147777,1.90026 1.105916,-1e-5 2.017436,-0.82966 2.147699,-1.90034 h 2.617884 c 0.151235,0 0.272998,-0.11583 0.272998,-0.25973 0,-0.14385 -0.121763,-0.25964 -0.272998,-0.25964 h -2.618037 -0.163202 -0.03192 c -0.15124,0 -0.272993,0.11583 -0.272993,0.25964 0,0.01 8.03e-4,0.0199 0.0016,0.0295 -8.02e-4,0.0449 -0.0032,0.0897 -0.0077,0.13431 -0.0057,0.0558 -0.01395,0.11134 -0.02507,0.16625 -0.01113,0.0549 -0.02505,0.10933 -0.0416,0.1629 -0.01657,0.0535 -0.03584,0.10621 -0.05768,0.15793 -0.02183,0.0517 -0.04626,0.1022 -0.07314,0.15139 -0.02689,0.0492 -0.0562,0.0971 -0.08785,0.1433 -0.03168,0.0463 -0.06565,0.0909 -0.101793,0.13386 -0.03612,0.0429 -0.07436,0.0839 -0.11459,0.12308 -0.04024,0.0392 -0.0824,0.0762 -0.126325,0.11096 -0.04393,0.0349 -0.08957,0.0675 -0.136768,0.0978 -0.04718,0.0303 -0.09585,0.0582 -0.145831,0.0837 -0.05,0.0254 -0.101231,0.0484 -0.153528,0.0685 -0.05226,0.0204 -0.105521,0.038 -0.159546,0.053 -0.05403,0.015 -0.108785,0.0273 -0.164039,0.0368 -0.05527,0.01 -0.110988,0.0163 -0.166938,0.0203 -0.03958,0.002 -0.07925,0.004 -0.11893,0.004 -0.05608,-4e-5 -0.112125,-0.002 -0.167926,-0.009 -0.05582,-0.007 -0.111288,-0.014 -0.166253,-0.0252 -0.05498,-0.0113 -0.109374,-0.025 -0.162973,-0.0417 -0.05357,-0.0165 -0.106284,-0.0358 -0.157946,-0.0575 -0.05165,-0.0219 -0.102181,-0.0463 -0.151393,-0.0732 -0.04921,-0.0269 -0.09704,-0.0563 -0.143315,-0.0879 -0.0463,-0.0317 -0.09097,-0.0655 -0.133875,-0.1017 -0.04288,-0.0362 -0.08392,-0.0743 -0.122971,-0.11458 -0.03909,-0.0403 -0.07614,-0.0823 -0.111012,-0.12633 -0.03487,-0.0439 -0.0675,-0.0896 -0.09783,-0.13675 -0.0303,-0.0472 -0.05822,-0.0958 -0.08366,-0.14581 -0.02545,-0.05 -0.04835,-0.1012 -0.06866,-0.15352 -0.02033,-0.0523 -0.03802,-0.10558 -0.05303,-0.15955 -0.01497,-0.054 -0.0273,-0.10871 -0.0368,-0.16402 -0.0095,-0.0553 -0.01632,-0.11096 -0.02028,-0.16695 -0.0019,-0.0284 -0.003,-0.0567 -0.0037,-0.0849 0.0011,-0.01 0.0017,-0.0197 0.0017,-0.0297 0,-0.1409 -0.114664,-0.25458 -0.258824,-0.25926 l -2.7e-4,-4.2e-4 h -0.0088 -0.198938 z"
       id="path1275"
       inkscape:connector-curvature="0" />
    <path
       style="vector-effect:none;fill:#000000;fill-opacity:1;fill-rule:evenodd;stroke:none;stroke-width:0.017962;stroke-linecap:butt;stroke-linejoin:miter;stroke-miterlimit:4;stroke-dasharray:none;stroke-dashoffset:0;stroke-opacity:1"
       d="m 92.786548,155.16644 -0.453191,0.14527 c 0.308886,0.8179 1.092017,1.40301 2.0181,1.40298 0.928164,0 1.712927,-0.58768 2.020307,-1.40847 l -0.454562,-0.14581 c -0.0059,0.0149 -0.01026,0.0304 -0.01647,0.0452 -0.02183,0.0517 -0.04625,0.10221 -0.07314,0.15139 -0.0269,0.0492 -0.0562,0.0971 -0.08785,0.14331 -0.03168,0.0463 -0.06565,0.0909 -0.101794,0.13386 -0.03612,0.0429 -0.07437,0.0839 -0.114589,0.12309 -0.04024,0.0392 -0.0824,0.0762 -0.126326,0.11095 -0.04393,0.0349 -0.08957,0.0675 -0.136765,0.0978 -0.04718,0.0303 -0.09585,0.0582 -0.145833,0.0837 -0.05,0.0254 -0.101243,0.0484 -0.153525,0.0685 -0.05226,0.0204 -0.105521,0.038 -0.159546,0.053 -0.05404,0.015 -0.108787,0.0273 -0.164041,0.0368 -0.05527,0.01 -0.110988,0.0164 -0.166939,0.0203 -0.03959,0.002 -0.07925,0.004 -0.11893,0.004 -0.05609,-4e-5 -0.112125,-0.003 -0.167927,-0.009 -0.0558,-0.006 -0.111288,-0.014 -0.166251,-0.0252 -0.05499,-0.0113 -0.109374,-0.025 -0.162975,-0.0415 -0.05357,-0.0165 -0.106296,-0.0358 -0.157945,-0.0577 -0.05166,-0.0219 -0.102181,-0.0463 -0.151392,-0.073 -0.04921,-0.0269 -0.09704,-0.0563 -0.143319,-0.0879 -0.0463,-0.0317 -0.09097,-0.0657 -0.133867,-0.1017 -0.04288,-0.0362 -0.08392,-0.0743 -0.122971,-0.11459 -0.03909,-0.0403 -0.07614,-0.0824 -0.111012,-0.12631 -0.03486,-0.0439 -0.0675,-0.0896 -0.09783,-0.13675 -0.0303,-0.0472 -0.05822,-0.0958 -0.08366,-0.14581 -0.02434,-0.0479 -0.0461,-0.0971 -0.06575,-0.14697 z"
       id="path1313"
       inkscape:connector-curvature="0" />
  </g>
</svg>
