<?xml version="1.0" encoding="UTF-8" standalone="no"?>
<!-- Created with Inkscape (http://www.inkscape.org/) -->

<svg
   width="18.917707mm"
   height="19.013317mm"
   viewBox="0 0 18.917707 19.013317"
   version="1.1"
   id="svg12156"
   sodipodi:docname="artificial_horizon1.svg"
   inkscape:version="1.2.2 (732a01da63, 2022-12-09)"
   xmlns:inkscape="http://www.inkscape.org/namespaces/inkscape"
   xmlns:sodipodi="http://sodipodi.sourceforge.net/DTD/sodipodi-0.dtd"
   xmlns="http://www.w3.org/2000/svg"
   xmlns:svg="http://www.w3.org/2000/svg">
  <sodipodi:namedview
     id="namedview12158"
     pagecolor="#ffffff"
     bordercolor="#000000"
     borderopacity="0.25"
     inkscape:showpageshadow="2"
     inkscape:pageopacity="0.0"
     inkscape:pagecheckerboard="0"
     inkscape:deskcolor="#d1d1d1"
     inkscape:document-units="mm"
     showgrid="false"
     inkscape:zoom="2.8649832"
     inkscape:cx="-15.706898"
     inkscape:cy="6.4572804"
     inkscape:window-width="1920"
     inkscape:window-height="991"
     inkscape:window-x="-9"
     inkscape:window-y="-9"
     inkscape:window-maximized="1"
     inkscape:current-layer="layer1"
     showguides="true" />
  <defs
     id="defs12153">
    <filter
       inkscape:collect="always"
       style="color-interpolation-filters:sRGB"
       id="filter1461"
       x="-0.0071981705"
       width="1.0143963"
       y="-0.036045819"
       height="1.0720916">
      <feGaussianBlur
         inkscape:collect="always"
         stdDeviation="0.20433248"
         id="feGaussianBlur1463" />
    </filter>
    <filter
       inkscape:collect="always"
       style="color-interpolation-filters:sRGB"
       id="filter1417"
       x="-0.016372267"
       width="1.0327445"
       y="-0.044934867"
       height="1.0898697">
      <feGaussianBlur
         inkscape:collect="always"
         stdDeviation="0.6762173"
         id="feGaussianBlur1419" />
    </filter>
    <filter
       inkscape:collect="always"
       style="color-interpolation-filters:sRGB"
       id="filter1374"
       x="-0.027571492"
       width="1.055143"
       y="-0.051850525"
       height="1.103701">
      <feGaussianBlur
         inkscape:collect="always"
         stdDeviation="1.141256"
         id="feGaussianBlur1376" />
    </filter>
    <filter
       style="color-interpolation-filters:sRGB"
       inkscape:label="Drop Shadow"
       id="filter2559"
       x="-0.16056687"
       y="-0.11411012"
       width="1.5122848"
       height="1.3640656">
      <feFlood
         flood-opacity="0.498039"
         flood-color="rgb(0,0,0)"
         result="flood"
         id="feFlood2549" />
      <feComposite
         in="flood"
         in2="SourceGraphic"
         operator="in"
         result="composite1"
         id="feComposite2551" />
      <feGaussianBlur
         in="composite1"
         stdDeviation="0.7"
         result="blur"
         id="feGaussianBlur2553" />
      <feOffset
         dx="2"
         dy="2"
         result="offset"
         id="feOffset2555" />
      <feComposite
         in="SourceGraphic"
         in2="offset"
         operator="over"
         result="composite2"
         id="feComposite2557" />
    </filter>
  </defs>
  <g
     inkscape:label="Capa 1"
     inkscape:groupmode="layer"
     id="layer1"
     transform="translate(-56.10717,-76.663384)">
    <circle
       cy="86.557121"
       cx="65.590286"
       id="circle1479"
       style="vector-effect:none;fill:#e84e12;fill-opacity:1;fill-rule:evenodd;stroke:none;stroke-width:0.000812153;stroke-linecap:butt;stroke-linejoin:miter;stroke-miterlimit:4;stroke-dasharray:none;stroke-dashoffset:0;stroke-opacity:1"
       r="0.54640454" />
    <g
       id="g1610"
       transform="matrix(0.18047754,0,0,0.18047754,38.221955,144.86782)">
      <circle
         r="49.6712"
         cy="-324.72409"
         cx="151.64412"
         id="circle1465"
         style="opacity:1;vector-effect:none;fill:#3f9dd1;fill-opacity:1;fill-rule:evenodd;stroke:none;stroke-width:0.073829;stroke-linecap:butt;stroke-linejoin:miter;stroke-miterlimit:4;stroke-dasharray:none;stroke-dashoffset:0;stroke-opacity:1" />
      <path
         inkscape:connector-curvature="0"
         id="path1571"
         d="m 101.89848,-324.31974 a 49.6712,49.6712 0 0 0 0.11007,3.10939 49.6712,49.6712 0 0 0 0.59841,4.92889 49.6712,49.6712 0 0 0 1.08727,4.84415 49.6712,49.6712 0 0 0 1.56528,4.71186 49.6712,49.6712 0 0 0 2.0283,4.53202 49.6712,49.6712 0 0 0 2.47065,4.30671 49.6712,49.6712 0 0 0 2.8882,4.03852 49.6712,49.6712 0 0 0 3.2768,3.73051 49.6712,49.6712 0 0 0 3.63285,3.38429 49.6712,49.6712 0 0 0 3.95274,3.00448 49.6712,49.6712 0 0 0 4.23281,2.59519 49.6712,49.6712 0 0 0 4.47052,2.16006 49.6712,49.6712 0 0 0 4.66381,1.70222 49.6712,49.6712 0 0 0 4.81108,1.22835 49.6712,49.6712 0 0 0 4.90926,0.74208 49.6712,49.6712 0 0 0 4.95888,0.24805 49.6712,49.6712 0 0 0 3.51345,-0.12454 49.6712,49.6712 0 0 0 4.92893,-0.59791 49.6712,49.6712 0 0 0 4.84465,-1.08778 49.6712,49.6712 0 0 0 4.71133,-1.56527 49.6712,49.6712 0 0 0 4.53202,-2.0283 49.6712,49.6712 0 0 0 4.30673,-2.47065 49.6712,49.6712 0 0 0 4.03902,-2.88769 49.6712,49.6712 0 0 0 3.73002,-3.27681 49.6712,49.6712 0 0 0 3.38428,-3.63284 49.6712,49.6712 0 0 0 3.00498,-3.95274 49.6712,49.6712 0 0 0 2.59519,-4.2328 49.6712,49.6712 0 0 0 2.15956,-4.47107 49.6712,49.6712 0 0 0 1.70222,-4.66378 49.6712,49.6712 0 0 0 1.22836,-4.81057 49.6712,49.6712 0 0 0 0.74207,-4.90977 49.6712,49.6712 0 0 0 0.22789,-4.55425 z"
         style="opacity:1;vector-effect:none;fill:#995a27;fill-opacity:1;fill-rule:evenodd;stroke:none;stroke-width:0.109513;stroke-linecap:butt;stroke-linejoin:miter;stroke-miterlimit:4;stroke-dasharray:none;stroke-dashoffset:0;stroke-opacity:1" />
      <g
         aria-label="20"
         style="font-style:normal;font-variant:normal;font-weight:normal;font-stretch:normal;font-size:6.04607px;line-height:7.08524px;font-family:Arial;-inkscape-font-specification:Arial;letter-spacing:0px;word-spacing:0px;fill:#000000;fill-opacity:1;stroke:none;stroke-width:0.283409"
         id="text1471">
        <path
           d="m 124.11738,-346.76717 v 0.51073 h -2.86067 q -0.006,-0.19189 0.062,-0.36902 0.10923,-0.29227 0.34836,-0.57568 0.24207,-0.28341 0.69671,-0.65538 0.70557,-0.57863 0.95356,-0.91518 0.24798,-0.3395 0.24798,-0.64062 0,-0.31588 -0.22732,-0.53139 -0.22437,-0.21847 -0.58748,-0.21847 -0.38379,0 -0.61406,0.23027 -0.23027,0.23027 -0.23322,0.63768 l -0.54615,-0.0561 q 0.0561,-0.6111 0.42216,-0.92993 0.36607,-0.32179 0.98308,-0.32179 0.62291,0 0.98602,0.3454 0.36312,0.34541 0.36312,0.85614 0,0.25979 -0.10628,0.51072 -0.10628,0.25094 -0.35426,0.52845 -0.24503,0.2775 -0.81775,0.76166 -0.47826,0.40149 -0.61406,0.54615 -0.1358,0.14171 -0.22436,0.28636 z"
           style="fill:#000000;stroke:none;stroke-width:0.283409"
           id="path1697"
           inkscape:connector-curvature="0" />
        <path
           d="m 124.6901,-348.39087 q 0,-0.76756 0.15647,-1.23401 0.15941,-0.4694 0.46939,-0.72328 0.31293,-0.25389 0.78528,-0.25389 0.34836,0 0.6111,0.1417 0.26275,0.13876 0.43397,0.40445 0.17123,0.26275 0.26865,0.64358 0.0974,0.37788 0.0974,1.02145 0,0.76167 -0.15647,1.23106 -0.15647,0.46645 -0.4694,0.72329 -0.30998,0.25389 -0.78528,0.25389 -0.62586,0 -0.98307,-0.44874 -0.42807,-0.54025 -0.42807,-1.7595 z m 0.54615,0 q 0,1.06574 0.24799,1.42 0.25093,0.35131 0.617,0.35131 0.36607,0 0.61406,-0.35426 0.25093,-0.35426 0.25093,-1.41705 0,-1.06869 -0.25093,-1.42 -0.24799,-0.35131 -0.61996,-0.35131 -0.36607,0 -0.58453,0.30998 -0.27456,0.3956 -0.27456,1.46133 z"
           style="fill:#000000;stroke:none;stroke-width:0.283409"
           id="path1699"
           inkscape:connector-curvature="0" />
      </g>
      <g
         aria-label="20"
         style="font-style:normal;font-variant:normal;font-weight:normal;font-stretch:normal;font-size:6.04607px;line-height:7.08524px;font-family:Arial;-inkscape-font-specification:Arial;letter-spacing:0px;word-spacing:0px;fill:#000000;fill-opacity:1;stroke:none;stroke-width:0.283409"
         id="text1475">
        <path
           d="m 179.75458,-346.76717 v 0.51073 h -2.86067 q -0.006,-0.19189 0.062,-0.36902 0.10923,-0.29227 0.34835,-0.57568 0.24208,-0.28341 0.69672,-0.65538 0.70557,-0.57863 0.95355,-0.91518 0.24799,-0.3395 0.24799,-0.64062 0,-0.31588 -0.22732,-0.53139 -0.22437,-0.21847 -0.58748,-0.21847 -0.38379,0 -0.61406,0.23027 -0.23027,0.23027 -0.23322,0.63768 l -0.54615,-0.0561 q 0.0561,-0.6111 0.42216,-0.92993 0.36607,-0.32179 0.98307,-0.32179 0.62291,0 0.98603,0.3454 0.36312,0.34541 0.36312,0.85614 0,0.25979 -0.10628,0.51072 -0.10628,0.25094 -0.35426,0.52845 -0.24503,0.2775 -0.81775,0.76166 -0.47826,0.40149 -0.61406,0.54615 -0.1358,0.14171 -0.22436,0.28636 z"
           style="fill:#000000;stroke:none;stroke-width:0.283409"
           id="path1702"
           inkscape:connector-curvature="0" />
        <path
           d="m 180.3273,-348.39087 q 0,-0.76756 0.15646,-1.23401 0.15942,-0.4694 0.4694,-0.72328 0.31293,-0.25389 0.78528,-0.25389 0.34836,0 0.6111,0.1417 0.26275,0.13876 0.43397,0.40445 0.17123,0.26275 0.26865,0.64358 0.0974,0.37788 0.0974,1.02145 0,0.76167 -0.15646,1.23106 -0.15647,0.46645 -0.4694,0.72329 -0.30998,0.25389 -0.78528,0.25389 -0.62586,0 -0.98307,-0.44874 -0.42807,-0.54025 -0.42807,-1.7595 z m 0.54615,0 q 0,1.06574 0.24799,1.42 0.25093,0.35131 0.617,0.35131 0.36607,0 0.61406,-0.35426 0.25093,-0.35426 0.25093,-1.41705 0,-1.06869 -0.25093,-1.42 -0.24799,-0.35131 -0.61996,-0.35131 -0.36607,0 -0.58453,0.30998 -0.27456,0.3956 -0.27456,1.46133 z"
           style="fill:#000000;stroke:none;stroke-width:0.283409"
           id="path1704"
           inkscape:connector-curvature="0" />
      </g>
      <g
         aria-label="10"
         style="font-style:normal;font-variant:normal;font-weight:normal;font-stretch:normal;font-size:6.04607px;line-height:7.08524px;font-family:Arial;-inkscape-font-specification:Arial;letter-spacing:0px;word-spacing:0px;fill:#000000;fill-opacity:1;stroke:none;stroke-width:0.283409"
         id="text1481">
        <path
           d="m 128.51354,-339.71401 h 1.0067 v 4.42827 h -0.6731 v -3.75517 h -0.3336 z"
           style="font-style:normal;font-variant:normal;font-weight:normal;font-stretch:normal;font-family:'Airborne II';-inkscape-font-specification:'Airborne II';fill:#000000;stroke:none"
           id="path1687"
           inkscape:connector-curvature="0" />
        <path
           d="m 130.17562,-337.42016 q 0,-0.76757 0.15647,-1.23402 0.15941,-0.46939 0.46939,-0.72328 0.31293,-0.25389 0.78528,-0.25389 0.34836,0 0.6111,0.14171 0.26275,0.13875 0.43398,0.40445 0.17122,0.26274 0.26864,0.64357 0.0974,0.37788 0.0974,1.02146 0,0.76166 -0.15647,1.23106 -0.15647,0.46644 -0.4694,0.72328 -0.30998,0.25389 -0.78528,0.25389 -0.62586,0 -0.98307,-0.44873 -0.42807,-0.54025 -0.42807,-1.7595 z m 0.54615,0 q 0,1.06573 0.24799,1.42 0.25093,0.35131 0.617,0.35131 0.36607,0 0.61406,-0.35427 0.25093,-0.35426 0.25093,-1.41704 0,-1.06869 -0.25093,-1.42 -0.24799,-0.35131 -0.61996,-0.35131 -0.36607,0 -0.58453,0.30998 -0.27456,0.39559 -0.27456,1.46133 z"
           style="fill:#000000;stroke:none;stroke-width:0.283409"
           id="path1689"
           inkscape:connector-curvature="0" />
      </g>
      <g
         aria-label="10"
         style="font-style:normal;font-variant:normal;font-weight:normal;font-stretch:normal;font-size:6.04607px;line-height:7.08524px;font-family:Arial;-inkscape-font-specification:Arial;letter-spacing:0px;word-spacing:0px;fill:#000000;fill-opacity:1;stroke:none;stroke-width:0.283409"
         id="text1487">
        <path
           d="m 172.1493,-339.71401 h 1.00669 v 4.42827 h -0.67309 v -3.75517 h -0.3336 z"
           style="font-style:normal;font-variant:normal;font-weight:normal;font-stretch:normal;font-family:'Airborne II';-inkscape-font-specification:'Airborne II';fill:#000000;stroke:none"
           id="path1692"
           inkscape:connector-curvature="0" />
        <path
           d="m 173.81138,-337.42016 q 0,-0.76757 0.15646,-1.23402 0.15942,-0.46939 0.4694,-0.72328 0.31293,-0.25389 0.78528,-0.25389 0.34836,0 0.6111,0.14171 0.26275,0.13875 0.43397,0.40445 0.17123,0.26274 0.26865,0.64357 0.0974,0.37788 0.0974,1.02146 0,0.76166 -0.15646,1.23106 -0.15647,0.46644 -0.4694,0.72328 -0.30998,0.25389 -0.78528,0.25389 -0.62586,0 -0.98308,-0.44873 -0.42806,-0.54025 -0.42806,-1.7595 z m 0.54615,0 q 0,1.06573 0.24798,1.42 0.25094,0.35131 0.61701,0.35131 0.36607,0 0.61405,-0.35427 0.25094,-0.35426 0.25094,-1.41704 0,-1.06869 -0.25094,-1.42 -0.24798,-0.35131 -0.61995,-0.35131 -0.36607,0 -0.58454,0.30998 -0.27455,0.39559 -0.27455,1.46133 z"
           style="fill:#000000;stroke:none;stroke-width:0.283409"
           id="path1694"
           inkscape:connector-curvature="0" />
      </g>
      <g
         aria-label="10"
         style="font-style:normal;font-variant:normal;font-weight:normal;font-stretch:normal;font-size:6.04607px;line-height:7.08524px;font-family:Arial;-inkscape-font-specification:Arial;letter-spacing:0px;word-spacing:0px;fill:#000000;fill-opacity:1;stroke:none;stroke-width:0.283409"
         id="text1493">
        <path
           d="m 129.89857,-309.99197 q 0,-0.76757 0.15647,-1.23401 0.15942,-0.4694 0.4694,-0.72329 0.31293,-0.25389 0.78528,-0.25389 0.34835,0 0.6111,0.14171 0.26274,0.13875 0.43397,0.40445 0.17123,0.26274 0.26865,0.64357 0.0974,0.37788 0.0974,1.02146 0,0.76166 -0.15647,1.23106 -0.15646,0.46644 -0.46939,0.72328 -0.30998,0.25389 -0.78528,0.25389 -0.62587,0 -0.98308,-0.44873 -0.42807,-0.54025 -0.42807,-1.7595 z m 0.54616,0 q 0,1.06574 0.24798,1.42 0.25094,0.35131 0.61701,0.35131 0.36607,0 0.61405,-0.35426 0.25094,-0.35427 0.25094,-1.41705 0,-1.06869 -0.25094,-1.42 -0.24798,-0.35131 -0.61996,-0.35131 -0.36607,0 -0.58453,0.30998 -0.27455,0.39559 -0.27455,1.46133 z"
           style="fill:#000000;stroke:none;stroke-width:0.283409"
           id="path1684"
           inkscape:connector-curvature="0" />
        <path
           d="m 128.2365,-312.28582 h 1.00669 v 4.42828 h -0.6731 v -3.75518 h -0.33359 z"
           style="font-style:normal;font-variant:normal;font-weight:normal;font-stretch:normal;font-family:'Airborne II';-inkscape-font-specification:'Airborne II';fill:#000000;stroke:none"
           id="path1682"
           inkscape:connector-curvature="0" />
      </g>
      <g
         aria-label="10"
         style="font-style:normal;font-variant:normal;font-weight:normal;font-stretch:normal;font-size:6.04607px;line-height:7.08524px;font-family:Arial;-inkscape-font-specification:Arial;letter-spacing:0px;word-spacing:0px;fill:#000000;fill-opacity:1;stroke:none;stroke-width:0.283409"
         id="text1499">
        <path
           d="m 172.28783,-312.28582 h 1.0067 v 4.42828 h -0.6731 v -3.75518 h -0.3336 z"
           style="font-style:normal;font-variant:normal;font-weight:normal;font-stretch:normal;font-family:'Airborne II';-inkscape-font-specification:'Airborne II';fill:#000000;stroke:none"
           id="path1677"
           inkscape:connector-curvature="0" />
        <path
           d="m 173.94991,-309.99197 q 0,-0.76757 0.15647,-1.23401 0.15942,-0.4694 0.46939,-0.72329 0.31294,-0.25389 0.78528,-0.25389 0.34836,0 0.61111,0.14171 0.26274,0.13875 0.43397,0.40445 0.17122,0.26274 0.26865,0.64357 0.0974,0.37788 0.0974,1.02146 0,0.76166 -0.15647,1.23106 -0.15646,0.46644 -0.46939,0.72328 -0.30998,0.25389 -0.78529,0.25389 -0.62586,0 -0.98307,-0.44873 -0.42807,-0.54025 -0.42807,-1.7595 z m 0.54616,0 q 0,1.06574 0.24798,1.42 0.25093,0.35131 0.617,0.35131 0.36608,0 0.61406,-0.35426 0.25093,-0.35427 0.25093,-1.41705 0,-1.06869 -0.25093,-1.42 -0.24798,-0.35131 -0.61996,-0.35131 -0.36607,0 -0.58453,0.30998 -0.27455,0.39559 -0.27455,1.46133 z"
           style="fill:#000000;stroke:none;stroke-width:0.283409"
           id="path1679"
           inkscape:connector-curvature="0" />
      </g>
      <g
         aria-label="20"
         style="font-style:normal;font-variant:normal;font-weight:normal;font-stretch:normal;font-size:6.04607px;line-height:7.08524px;font-family:Arial;-inkscape-font-specification:Arial;letter-spacing:0px;word-spacing:0px;fill:#000000;fill-opacity:1;stroke:none;stroke-width:0.283409"
         id="text1503">
        <path
           d="m 124.2559,-297.38261 v 0.51072 h -2.86067 q -0.006,-0.19189 0.062,-0.36902 0.10923,-0.29227 0.34835,-0.57568 0.24208,-0.2834 0.69672,-0.65538 0.70557,-0.57863 0.95355,-0.91518 0.24799,-0.3395 0.24799,-0.64062 0,-0.31588 -0.22732,-0.53139 -0.22437,-0.21846 -0.58748,-0.21846 -0.38379,0 -0.61406,0.23027 -0.23027,0.23027 -0.23322,0.63767 l -0.54615,-0.0561 q 0.0561,-0.61111 0.42216,-0.92994 0.36607,-0.32179 0.98307,-0.32179 0.62291,0 0.98603,0.34541 0.36312,0.3454 0.36312,0.85613 0,0.25979 -0.10628,0.51073 -0.10628,0.25093 -0.35426,0.52844 -0.24503,0.2775 -0.81775,0.76166 -0.47826,0.4015 -0.61406,0.54615 -0.1358,0.14171 -0.22436,0.28637 z"
           style="fill:#000000;stroke:none;stroke-width:0.283409"
           id="path1672"
           inkscape:connector-curvature="0" />
        <path
           d="m 124.82862,-299.00631 q 0,-0.76757 0.15646,-1.23402 0.15942,-0.46939 0.4694,-0.72328 0.31293,-0.25389 0.78528,-0.25389 0.34836,0 0.6111,0.14171 0.26275,0.13875 0.43397,0.40444 0.17123,0.26275 0.26865,0.64358 0.0974,0.37788 0.0974,1.02146 0,0.76166 -0.15646,1.23106 -0.15647,0.46644 -0.4694,0.72328 -0.30998,0.25389 -0.78528,0.25389 -0.62586,0 -0.98307,-0.44873 -0.42807,-0.54025 -0.42807,-1.7595 z m 0.54615,0 q 0,1.06573 0.24799,1.41999 0.25093,0.35131 0.617,0.35131 0.36607,0 0.61406,-0.35426 0.25093,-0.35426 0.25093,-1.41704 0,-1.06869 -0.25093,-1.42 -0.24799,-0.35131 -0.61996,-0.35131 -0.36607,0 -0.58453,0.30998 -0.27456,0.39559 -0.27456,1.46133 z"
           style="fill:#000000;stroke:none;stroke-width:0.283409"
           id="path1674"
           inkscape:connector-curvature="0" />
      </g>
      <g
         aria-label="20"
         style="font-style:normal;font-variant:normal;font-weight:normal;font-stretch:normal;font-size:6.04607px;line-height:7.08524px;font-family:Arial;-inkscape-font-specification:Arial;letter-spacing:0px;word-spacing:0px;fill:#000000;fill-opacity:1;stroke:none;stroke-width:0.283409"
         id="text1507">
        <path
           d="m 179.66638,-297.38261 v 0.51072 h -2.86066 q -0.006,-0.19189 0.062,-0.36902 0.10923,-0.29227 0.34836,-0.57568 0.24208,-0.2834 0.69671,-0.65538 0.70558,-0.57863 0.95356,-0.91518 0.24798,-0.3395 0.24798,-0.64062 0,-0.31588 -0.22732,-0.53139 -0.22436,-0.21846 -0.58748,-0.21846 -0.38378,0 -0.61405,0.23027 -0.23027,0.23027 -0.23323,0.63767 l -0.54615,-0.0561 q 0.0561,-0.61111 0.42216,-0.92994 0.36607,-0.32179 0.98308,-0.32179 0.62291,0 0.98603,0.34541 0.36312,0.3454 0.36312,0.85613 0,0.25979 -0.10628,0.51073 -0.10628,0.25093 -0.35426,0.52844 -0.24504,0.2775 -0.81776,0.76166 -0.47825,0.4015 -0.61405,0.54615 -0.1358,0.14171 -0.22437,0.28637 z"
           style="fill:#000000;stroke:none;stroke-width:0.283409"
           id="path1667"
           inkscape:connector-curvature="0" />
        <path
           d="m 180.2391,-299.00631 q 0,-0.76757 0.15647,-1.23402 0.15942,-0.46939 0.4694,-0.72328 0.31293,-0.25389 0.78528,-0.25389 0.34835,0 0.6111,0.14171 0.26274,0.13875 0.43397,0.40444 0.17122,0.26275 0.26865,0.64358 0.0974,0.37788 0.0974,1.02146 0,0.76166 -0.15647,1.23106 -0.15646,0.46644 -0.46939,0.72328 -0.30998,0.25389 -0.78528,0.25389 -0.62587,0 -0.98308,-0.44873 -0.42807,-0.54025 -0.42807,-1.7595 z m 0.54616,0 q 0,1.06573 0.24798,1.41999 0.25094,0.35131 0.61701,0.35131 0.36607,0 0.61405,-0.35426 0.25094,-0.35426 0.25094,-1.41704 0,-1.06869 -0.25094,-1.42 -0.24798,-0.35131 -0.61996,-0.35131 -0.36607,0 -0.58453,0.30998 -0.27455,0.39559 -0.27455,1.46133 z"
           style="fill:#000000;stroke:none;stroke-width:0.283409"
           id="path1669"
           inkscape:connector-curvature="0" />
      </g>
      <rect
         style="opacity:1;vector-effect:none;fill:#000000;fill-opacity:1;fill-rule:evenodd;stroke:none;stroke-width:0.1;stroke-linecap:butt;stroke-linejoin:miter;stroke-miterlimit:4;stroke-dasharray:none;stroke-dashoffset:0;stroke-opacity:1"
         id="rect1509"
         width="42.707424"
         height="0.7836225"
         x="130.57109"
         y="-299.01001" />
      <rect
         y="-304.56247"
         x="139.56389"
         height="0.80643958"
         width="24.721836"
         id="rect1511"
         style="opacity:1;vector-effect:none;fill:#000000;fill-opacity:1;fill-rule:evenodd;stroke:none;stroke-width:0.0771829;stroke-linecap:butt;stroke-linejoin:miter;stroke-miterlimit:4;stroke-dasharray:none;stroke-dashoffset:0;stroke-opacity:1" />
      <rect
         style="opacity:1;vector-effect:none;fill:#000000;fill-opacity:1;fill-rule:evenodd;stroke:none;stroke-width:0.086613;stroke-linecap:butt;stroke-linejoin:miter;stroke-miterlimit:4;stroke-dasharray:none;stroke-dashoffset:0;stroke-opacity:1"
         id="rect1513"
         width="31.500189"
         height="0.79700947"
         x="136.17471"
         y="-310.09879" />
      <rect
         y="-315.50998"
         x="142.06673"
         height="0.81435752"
         width="19.71616"
         id="rect1515"
         style="opacity:1;vector-effect:none;fill:#000000;fill-opacity:1;fill-rule:evenodd;stroke:none;stroke-width:0.069265;stroke-linecap:butt;stroke-linejoin:miter;stroke-miterlimit:4;stroke-dasharray:none;stroke-dashoffset:0;stroke-opacity:1" />
      <rect
         style="opacity:1;vector-effect:none;fill:#000000;fill-opacity:1;fill-rule:evenodd;stroke:none;stroke-width:0.0679324;stroke-linecap:butt;stroke-linejoin:miter;stroke-miterlimit:4;stroke-dasharray:none;stroke-dashoffset:0;stroke-opacity:1"
         id="rect1517"
         width="18.933868"
         height="0.8156901"
         x="142.45787"
         y="-331.99527" />
      <rect
         y="-337.38889"
         x="136.51015"
         height="0.79788947"
         width="30.829321"
         id="rect1519"
         style="opacity:1;vector-effect:none;fill:#000000;fill-opacity:1;fill-rule:evenodd;stroke:none;stroke-width:0.085733;stroke-linecap:butt;stroke-linejoin:miter;stroke-miterlimit:4;stroke-dasharray:none;stroke-dashoffset:0;stroke-opacity:1" />
      <rect
         style="opacity:1;vector-effect:none;fill:#000000;fill-opacity:1;fill-rule:evenodd;stroke:none;stroke-width:0.078236;stroke-linecap:butt;stroke-linejoin:miter;stroke-miterlimit:4;stroke-dasharray:none;stroke-dashoffset:0;stroke-opacity:1"
         id="rect1521"
         width="25.434296"
         height="0.80538648"
         x="139.20766"
         y="-343.00293" />
      <rect
         y="-348.60297"
         x="131.11415"
         height="0.78482652"
         width="41.6213"
         id="rect1523"
         style="opacity:1;vector-effect:none;fill:#000000;fill-opacity:1;fill-rule:evenodd;stroke:none;stroke-width:0.098796;stroke-linecap:butt;stroke-linejoin:miter;stroke-miterlimit:4;stroke-dasharray:none;stroke-dashoffset:0;stroke-opacity:1" />
      <rect
         style="opacity:1;vector-effect:none;fill:#000000;fill-opacity:1;fill-rule:evenodd;stroke:none;stroke-width:0.0768008;stroke-linecap:butt;stroke-linejoin:miter;stroke-miterlimit:4;stroke-dasharray:none;stroke-dashoffset:0;stroke-opacity:1"
         id="rect1525"
         width="24.466045"
         height="0.80682176"
         x="139.69177"
         y="-354.22427" />
      <rect
         y="-324.4646"
         x="102.15263"
         height="2.0831409"
         width="98.88588"
         id="rect1527"
         style="opacity:1;vector-effect:none;fill:#000000;fill-opacity:1;fill-rule:evenodd;stroke:none;stroke-width:0.248097;stroke-linecap:butt;stroke-linejoin:miter;stroke-miterlimit:4;stroke-dasharray:none;stroke-dashoffset:0;stroke-opacity:1" />
      <path
         style="opacity:0.753;vector-effect:none;fill:#3771c8;fill-opacity:1;fill-rule:evenodd;stroke:none;stroke-width:0.073829;stroke-linecap:butt;stroke-linejoin:miter;stroke-miterlimit:4;stroke-dasharray:none;stroke-dashoffset:0;stroke-opacity:1;filter:url(#filter1461)"
         d="m 117.53236,-360.79018 c 0.74971,-0.16047 1.47749,-0.33423 2.24844,-0.48163 1.54276,-0.29495 3.12674,-0.56403 4.74648,-0.80719 1.61974,-0.24312 3.275,-0.46074 4.96094,-0.65267 1.68594,-0.1919 3.40251,-0.35838 5.14387,-0.49969 1.74137,-0.14134 3.50773,-0.25747 5.29374,-0.34883 1.786,-0.0914 3.59168,-0.15796 5.41155,-0.19997 1.81986,-0.042 3.65388,-0.0594 5.49682,-0.0527 1.84295,0.007 3.6948,0.0377 5.55005,0.0925 1.85525,0.0548 3.71396,0.13342 5.57072,0.23566 1.85676,0.10221 3.71133,0.22767 5.55883,0.37671 1.84751,0.14904 3.68797,0.3215 5.51543,0.51676 1.82746,0.19526 3.6423,0.41339 5.43894,0.65424 1.79664,0.24082 3.57487,0.50432 5.32991,0.79012 0.62988,0.10258 1.23884,0.22347 1.86242,0.33176 a 49.6712,49.6712 0 0 0 -34.01653,-13.55989 49.6712,49.6712 0 0 0 -34.11161,13.60485 z"
         id="path1529"
         inkscape:connector-curvature="0" />
    </g>
    <g
       id="g2112"
       transform="matrix(0.32780049,0,0,0.32780049,19.747054,115.62384)"
       style="opacity:0.679;stroke:#ffffff">
      <g
         id="g2090"
         style="stroke:#ffffff">
        <path
           style="opacity:1;vector-effect:none;fill:none;fill-opacity:1;stroke:#ffffff;stroke-width:4.53543;stroke-linecap:butt;stroke-linejoin:miter;stroke-miterlimit:4;stroke-dasharray:none;stroke-dashoffset:0;stroke-opacity:1"
           d="m 528.57116,-333.66126 71.78463,70.94901"
           id="path2021"
           transform="scale(0.26458333)"
           inkscape:connector-curvature="0" />
        <path
           style="opacity:1;vector-effect:none;fill:none;fill-opacity:1;stroke:#ffffff;stroke-width:4.53543;stroke-linecap:butt;stroke-linejoin:miter;stroke-miterlimit:4;stroke-dasharray:none;stroke-dashoffset:0;stroke-opacity:1"
           d="m 528.57116,-333.66126 -71.71558,70.88078"
           id="path2038"
           transform="scale(0.26458333)"
           inkscape:connector-curvature="0" />
      </g>
      <path
         inkscape:connector-curvature="0"
         transform="scale(0.26458333)"
         id="path2093"
         d="m 528.57116,-333.66125 89.43698,48.2282"
         style="opacity:1;vector-effect:none;fill:#f9f9f9;fill-opacity:1;stroke:#ffffff;stroke-width:4.53543;stroke-linecap:butt;stroke-linejoin:miter;stroke-miterlimit:4;stroke-dasharray:none;stroke-dashoffset:0;stroke-opacity:1" />
      <path
         inkscape:connector-curvature="0"
         transform="scale(0.26458333)"
         id="path2095"
         d="m 528.57116,-333.66125 -89.40499,48.21095"
         style="opacity:1;vector-effect:none;fill:none;fill-opacity:1;stroke:#ffffff;stroke-width:4.53543;stroke-linecap:butt;stroke-linejoin:miter;stroke-miterlimit:4;stroke-dasharray:none;stroke-dashoffset:0;stroke-opacity:1" />
    </g>
    <path
       style="opacity:0.55;vector-effect:none;fill:#000000;fill-opacity:1;fill-rule:evenodd;stroke:none;stroke-width:0.073829;stroke-linecap:butt;stroke-linejoin:miter;stroke-miterlimit:4;stroke-dasharray:none;stroke-dashoffset:0;stroke-opacity:1;filter:url(#filter1417)"
       d="m 102.31491,-206.87433 c -0.0497,0.75736 -0.0827,1.51931 -0.11524,2.28152 0.84164,13.41948 7.00248,25.39642 16.40986,33.83411 l 66.38766,-0.0734 c 9.3625,-8.43444 15.49041,-20.38209 16.32874,-33.76435 -0.0326,-0.76151 -0.0655,-1.52278 -0.11525,-2.27945 -0.1101,1.3202 -0.23167,2.63752 -0.44286,3.92638 -0.26607,1.62389 -0.61109,3.22146 -1.03042,4.78834 -0.41934,1.56688 -0.9134,3.10313 -1.47797,4.60488 -0.56456,1.50175 -1.19941,2.96917 -1.90116,4.39767 -0.70178,1.4285 -1.47021,2.81799 -2.30116,4.16512 -0.83095,1.34713 -1.72474,2.65168 -2.67684,3.90932 -0.95208,1.25764 -1.9625,2.46869 -3.02771,3.62872 -1.06521,1.16003 -2.18503,2.26901 -3.35537,3.32331 l -66.38766,0.0734 c -1.17594,-1.05471 -2.30095,-2.16467 -3.37137,-3.32589 -1.07043,-1.16122 -2.0864,-2.37384 -3.04324,-3.63337 -0.95681,-1.25954 -1.85462,-2.56587 -2.68975,-3.91553 -0.83513,-1.34965 -1.60719,-2.74231 -2.31252,-4.1739 -0.70533,-1.4316 -1.34406,-2.90215 -1.91151,-4.40748 -0.56745,-1.50535 -1.06372,-3.04536 -1.48518,-4.61626 -0.42146,-1.5709 -0.76822,-3.173 -1.0356,-4.80126 -0.21248,-1.29392 -0.33486,-2.61637 -0.44545,-3.94188 z"
       id="path1385"
       inkscape:connector-curvature="0"
       transform="matrix(0.18047754,0,0,0.18047754,38.221955,123.89706)" />
    <path
       style="opacity:0.48;vector-effect:none;fill:#000000;fill-opacity:1;fill-rule:evenodd;stroke:none;stroke-width:0.073829;stroke-linecap:butt;stroke-linejoin:miter;stroke-miterlimit:4;stroke-dasharray:none;stroke-dashoffset:0;stroke-opacity:1;filter:url(#filter1374)"
       d="m 151.50928,-258.21801 c -27.43266,0 -49.67087,22.23822 -49.67087,49.67087 0,1.06036 0.0425,2.11047 0.108,3.15433 0.0419,-0.98215 0.0502,-1.9733 0.14831,-2.93987 0.16958,-1.6698 0.4221,-3.31526 0.75293,-4.932 0.33083,-1.61674 0.73993,-3.20457 1.2237,-4.75992 0.48376,-1.55535 1.04181,-3.0779 1.67018,-4.56354 0.62838,-1.48565 1.3272,-2.93476 2.09186,-4.34238 0.76466,-1.40761 1.59559,-2.77409 2.48822,-4.09535 0.89263,-1.32126 1.84698,-2.59695 2.85925,-3.82354 1.01227,-1.22659 2.08243,-2.40385 3.20601,-3.52744 1.12361,-1.12358 2.30034,-2.19373 3.52692,-3.206 1.22659,-1.01227 2.5028,-1.96663 3.82405,-2.85926 1.32128,-0.89262 2.68775,-1.72356 4.09536,-2.48822 1.40763,-0.76466 2.85623,-1.46297 4.34186,-2.09134 1.48564,-0.62838 3.00818,-1.18694 4.56354,-1.6707 1.55535,-0.48377 3.1437,-0.89287 4.76043,-1.2237 1.61674,-0.33083 3.26221,-0.58335 4.93199,-0.75292 1.66982,-0.16958 3.36373,-0.25632 5.07826,-0.25632 1.71455,0 3.40897,0.0867 5.07875,0.25632 1.66982,0.16957 3.31526,0.42209 4.932,0.75292 1.61673,0.33083 3.20508,0.73993 4.76043,1.2237 1.55536,0.48376 3.0779,1.04232 4.56356,1.6707 1.48564,0.62837 2.93423,1.32668 4.34184,2.09134 1.40764,0.76466 2.7741,1.5956 4.09538,2.48822 1.32125,0.89263 2.59694,1.84699 3.82352,2.85926 1.22658,1.01227 2.40385,2.08242 3.52745,3.206 1.12358,1.12359 2.19371,2.30085 3.20598,3.52744 1.01227,1.22659 1.96665,2.50228 2.85928,3.82354 0.89262,1.32126 1.72355,2.68774 2.48822,4.09535 0.76464,1.40762 1.46349,2.85673 2.09185,4.34238 0.62838,1.48564 1.18641,3.00819 1.67018,4.56354 0.48376,1.55535 0.89286,3.14318 1.2237,4.75992 0.33083,1.61674 0.58335,3.2622 0.75292,4.932 0.0981,0.96538 0.10636,1.95532 0.14833,2.93625 0.0653,-1.04267 0.108,-2.09158 0.108,-3.15071 0,-27.43265 -22.23873,-49.67087 -49.67139,-49.67087 z"
       id="circle1327"
       inkscape:connector-curvature="0"
       transform="matrix(0.18047754,0,0,0.18047754,38.221955,123.89706)" />
    <g
       aria-label="VACUUM"
       style="font-style:normal;font-variant:normal;font-weight:normal;font-stretch:normal;font-size:5.64444px;line-height:6.61458px;font-family:Arial;-inkscape-font-specification:Arial;letter-spacing:0px;word-spacing:0px;fill:#ffffff;fill-opacity:1;stroke:none;stroke-width:0.264583"
       id="text1859"
       transform="matrix(0.18047754,0,0,0.18047754,38.221955,119.00629)">
      <path
         d="m 141.76073,-146.49269 -1.56545,-4.04041 h 0.57877 l 1.05007,2.93522 q 0.12678,0.35278 0.21221,0.66146 0.0937,-0.33073 0.21773,-0.66146 l 1.09141,-2.93522 h 0.5457 l -1.58198,4.04041 z"
         style="fill:#000000;stroke:none;stroke-width:0.264583"
         id="path1654"
         inkscape:connector-curvature="0" />
      <path
         d="m 143.51359,-146.49269 1.55167,-4.04041 h 0.57602 l 1.65365,4.04041 h -0.60909 l -0.47129,-1.2237 h -1.68948 l -0.44373,1.2237 z m 1.16582,-1.65916 h 1.36977 l -0.42168,-1.11897 q -0.19292,-0.50987 -0.28663,-0.83784 -0.0772,0.3886 -0.21773,0.7717 z"
         style="fill:#000000;stroke:none;stroke-width:0.264583"
         id="path1656"
         inkscape:connector-curvature="0" />
      <path
         d="m 150.61049,-147.90931 0.53468,0.13504 q -0.16812,0.65871 -0.60634,1.00597 -0.43546,0.34451 -1.0666,0.34451 -0.65319,0 -1.06385,-0.26458 -0.4079,-0.26734 -0.62287,-0.7717 -0.21222,-0.50437 -0.21222,-1.08314 0,-0.63114 0.23978,-1.09968 0.24254,-0.47129 0.68626,-0.71382 0.44649,-0.24529 0.98117,-0.24529 0.60633,0 1.01975,0.30868 0.41341,0.30868 0.57602,0.86816 l -0.52642,0.12403 q -0.14056,-0.44098 -0.40789,-0.64217 -0.26734,-0.20119 -0.67249,-0.20119 -0.46577,0 -0.77997,0.22324 -0.31143,0.22324 -0.43821,0.60082 -0.12678,0.37483 -0.12678,0.77446 0,0.51539 0.14883,0.90124 0.15158,0.38309 0.46853,0.57326 0.31695,0.19017 0.68626,0.19017 0.44924,0 0.76068,-0.25907 0.31144,-0.25907 0.42168,-0.76894 z"
         style="fill:#000000;stroke:none;stroke-width:0.264583"
         id="path1658"
         inkscape:connector-curvature="0" />
      <path
         d="m 154.45797,-150.5331 h 0.53468 v 2.3344 q 0,0.60909 -0.1378,0.96738 -0.13781,0.35829 -0.49885,0.58429 -0.35829,0.22324 -0.94258,0.22324 -0.56775,0 -0.9288,-0.19568 -0.36105,-0.19568 -0.51539,-0.565 -0.15434,-0.37207 -0.15434,-1.01423 v -2.3344 h 0.53468 v 2.33164 q 0,0.52641 0.0965,0.77722 0.0992,0.24804 0.33624,0.38309 0.23978,0.13505 0.58428,0.13505 0.5898,0 0.84061,-0.26734 0.2508,-0.26734 0.2508,-1.02802 z"
         style="fill:#000000;stroke:none;stroke-width:0.264583"
         id="path1660"
         inkscape:connector-curvature="0" />
      <path
         d="m 158.53696,-150.5331 h 0.53468 v 2.3344 q 0,0.60909 -0.1378,0.96738 -0.13781,0.35829 -0.49885,0.58429 -0.35829,0.22324 -0.94258,0.22324 -0.56775,0 -0.9288,-0.19568 -0.36104,-0.19568 -0.51538,-0.565 -0.15434,-0.37207 -0.15434,-1.01423 v -2.3344 h 0.53468 v 2.33164 q 0,0.52641 0.0965,0.77722 0.0992,0.24804 0.33624,0.38309 0.23978,0.13505 0.58429,0.13505 0.5898,0 0.8406,-0.26734 0.2508,-0.26734 0.2508,-1.02802 z"
         style="fill:#000000;stroke:none;stroke-width:0.264583"
         id="path1662"
         inkscape:connector-curvature="0" />
      <path
         d="m 159.94808,-146.49269 v -4.04041 h 0.80477 l 0.95636,2.86081 q 0.13229,0.39963 0.19292,0.59807 0.0689,-0.22049 0.21498,-0.64768 l 0.96738,-2.8112 h 0.71934 v 4.04041 h -0.51539 v -3.38171 l -1.17409,3.38171 h -0.48231 l -1.16858,-3.43958 v 3.43958 z"
         style="fill:#000000;stroke:none;stroke-width:0.264583"
         id="path1664"
         inkscape:connector-curvature="0" />
    </g>
    <path
       inkscape:connector-curvature="0"
       id="path2507"
       d="m 152.4739,-265.45898 -5.23121,14.72262 h 10.46293 z m 0,6.91947 1.81022,5.09375 h -3.61993 z"
       style="vector-effect:none;fill:#ff0000;fill-opacity:1;fill-rule:evenodd;stroke:none;stroke-width:0.0546777;stroke-linecap:butt;stroke-linejoin:miter;stroke-miterlimit:4;stroke-dasharray:none;stroke-dashoffset:0;stroke-opacity:1;filter:url(#filter2559)"
       transform="matrix(0.18047754,0,0,0.18047754,38.222078,124.87597)" />
  </g>
</svg>
