<?xml version="1.0" encoding="UTF-8" standalone="no"?>
<!-- Created with Inkscape (http://www.inkscape.org/) -->

<svg
   width="13.228859mm"
   height="13.22885mm"
   viewBox="0 0 13.228859 13.22885"
   version="1.1"
   id="svg5"
   xml:space="preserve"
   inkscape:version="1.2.2 (732a01da63, 2022-12-09)"
   sodipodi:docname="knob.svg"
   xmlns:inkscape="http://www.inkscape.org/namespaces/inkscape"
   xmlns:sodipodi="http://sodipodi.sourceforge.net/DTD/sodipodi-0.dtd"
   xmlns="http://www.w3.org/2000/svg"
   xmlns:svg="http://www.w3.org/2000/svg"><sodipodi:namedview
     id="namedview7"
     pagecolor="#ffffff"
     bordercolor="#000000"
     borderopacity="0.25"
     inkscape:showpageshadow="2"
     inkscape:pageopacity="0.0"
     inkscape:pagecheckerboard="0"
     inkscape:deskcolor="#d1d1d1"
     inkscape:document-units="mm"
     showgrid="false"
     inkscape:zoom="1.4324916"
     inkscape:cx="43.630274"
     inkscape:cy="-52.705371"
     inkscape:window-width="1920"
     inkscape:window-height="991"
     inkscape:window-x="-9"
     inkscape:window-y="-9"
     inkscape:window-maximized="1"
     inkscape:current-layer="layer1" /><defs
     id="defs2" /><g
     inkscape:label="Capa 1"
     inkscape:groupmode="layer"
     id="layer1"
     transform="translate(-91.721021,-135.68946)"><path
       style="fill:#800000;stroke-width:0.999998"
       d="m 96.705139,148.54129 c -0.626007,-0.63246 -1.465891,-0.9623 -1.743434,-0.68468 -0.172546,0.1726 -0.593046,-0.11261 -1.416789,-0.96094 -0.414632,-0.427 -0.757192,-0.81424 -0.761244,-0.86052 -0.0041,-0.0463 -0.015,-0.36875 -0.02432,-0.71659 -0.01953,-0.72887 -0.295623,-1.39237 -0.600596,-1.44337 -0.37401,-0.0625 -0.437735,-0.28808 -0.437735,-1.54924 0,-1.20459 0.08067,-1.58045 0.33921,-1.58045 0.15957,0 0.694261,-0.74178 0.843636,-1.17039 0.08092,-0.2322 0.06919,-0.34238 -0.05699,-0.535 -0.211148,-0.32233 -0.119055,-0.49143 0.757542,-1.39099 0.803054,-0.82408 1.172296,-1.06139 1.381394,-0.88781 0.16849,0.13987 0.919222,0.0461 1.385191,-0.17295 0.222487,-0.10462 0.338599,-0.23772 0.377629,-0.43289 0.03096,-0.15501 0.135236,-0.32406 0.231653,-0.37568 0.215745,-0.11549 2.52143,-0.12248 2.701704,-0.008 0.07172,0.0455 0.181513,0.18523 0.243988,0.31058 0.137982,0.27684 0.789562,0.73897 1.161652,0.8239 0.17621,0.0402 0.35547,0.007 0.51091,-0.095 0.32841,-0.21524 0.58433,-0.0692 1.46838,0.83802 0.82321,0.84476 0.96134,1.07187 0.8046,1.32292 -0.0827,0.13243 -0.0818,0.31527 0.003,0.72607 0.12752,0.61443 0.4127,1.04739 0.6899,1.04739 0.30771,0 0.38546,0.32255 0.38546,1.59904 0,1.0929 -0.0207,1.24328 -0.19455,1.41723 -0.107,0.10703 -0.22907,0.1946 -0.27127,0.1946 -0.0422,0 -0.21729,0.232 -0.3891,0.51555 -0.3159,0.52136 -0.40008,1.01188 -0.20682,1.20519 0.17254,0.17259 -0.11259,0.5932 -0.9607,1.41715 -0.4269,0.41474 -0.81403,0.75756 -0.8603,0.76182 -0.0463,0.004 -0.34677,0.0153 -0.66777,0.0245 -0.67695,0.0195 -1.30415,0.29081 -1.473878,0.63763 -0.06245,0.12764 -0.172234,0.26927 -0.243951,0.31473 -0.07172,0.0455 -0.686809,0.0833 -1.366882,0.0842 l -1.23648,0.001 z m 3.006447,-1.66246 c 2.024004,-0.62568 3.390534,-2.46723 3.390534,-4.56913 0,-1.33149 -0.45492,-2.42645 -1.40147,-3.37324 -0.94471,-0.94494 -2.041422,-1.40183 -3.364976,-1.40183 -1.323554,0 -2.420271,0.45689 -3.364969,1.40183 -1.51216,1.51255 -1.836638,3.68703 -0.843039,5.64962 0.303228,0.59894 1.292798,1.60312 1.875322,1.903 1.174703,0.60473 2.546732,0.74892 3.708598,0.38975 z m 0.951454,-1.73118 c -0.13772,-0.0933 -0.84885,-0.66481 -1.580299,-1.27003 -0.890903,-0.73714 -1.351029,-1.18457 -1.393901,-1.35544 -0.135692,-0.54078 0.467512,-1.05828 0.967797,-0.83028 0.276801,0.12615 2.336943,3.25385 2.289163,3.47539 -0.0284,0.13165 -0.063,0.12925 -0.28276,-0.0196 z"
       id="path179" /><path
       style="fill:#ff0000;stroke-width:1.88976"
       d="m 368.9194,555.57321 c -2.97004,-0.50103 -5.73152,-1.59357 -7.58075,-2.99919 -1.12634,-0.85615 -3.6337,-3.40896 -4.49821,-4.57975 -2.20684,-2.98868 -3.4634,-7.73817 -3.09435,-11.69588 0.39621,-4.24893 2.12588,-7.93138 5.1775,-11.02279 3.93633,-3.98767 8.99934,-5.85206 14.43839,-5.31674 4.29375,0.42259 7.61115,1.97859 10.77947,5.05602 3.24953,3.15631 4.98067,6.73891 5.39183,11.15843 0.38331,4.12007 -0.66592,8.17973 -3.04569,11.78436 -0.9289,1.407 -3.34333,3.82424 -4.73407,4.73956 -2.19478,1.44451 -4.68965,2.45975 -7.02498,2.8587 -1.39361,0.23807 -4.4465,0.24715 -5.80914,0.0173 z m 12.62951,-6.75387 c 0.0393,-0.15015 -0.0363,-0.51396 -0.16914,-0.81426 -0.82304,-1.86061 -5.47258,-8.99328 -7.52773,-11.54798 -0.78707,-0.97839 -1.14726,-1.18966 -2.02019,-1.18498 -1.62343,0.009 -3.07512,1.80855 -2.67054,3.31104 0.248,0.92099 1.88537,2.477 7.10069,6.74784 3.39405,2.77941 4.6963,3.75977 4.9942,3.75977 0.12465,0 0.2528,-0.11884 0.29271,-0.27143 z"
       id="path401"
       transform="scale(0.26458333)" /><path
       style="fill:#800000;stroke-width:1.88976"
       d="m 365.78729,561.59869 c -2.67764,-2.59395 -5.34613,-3.72693 -6.8181,-2.8948 -0.64946,0.36715 -1.00158,0.26549 -2.20403,-0.63631 -0.90584,-0.67934 -3.60208,-3.31927 -5.04686,-4.94145 -0.97759,-1.09763 -1.04917,-1.31748 -1.05748,-3.24791 -0.009,-2.20553 -0.46827,-4.11327 -1.27857,-5.31667 -0.32728,-0.48606 -0.52199,-0.63238 -1.16777,-0.87758 -0.99783,-0.37887 -1.22062,-0.77496 -1.38473,-2.46188 -0.23857,-2.45233 -0.0903,-7.1955 0.25893,-8.28454 0.18344,-0.57202 0.45354,-0.87668 0.77723,-0.87668 0.60423,0 2.50348,-2.51542 3.22582,-4.27237 0.39188,-0.95317 0.37973,-1.35891 -0.0661,-2.20639 -0.59397,-1.12915 -0.50505,-1.53462 0.64122,-2.92401 0.92852,-1.12546 3.7292,-3.9605 4.66519,-4.72241 0.88066,-0.71688 1.7006,-1.17704 2.09731,-1.17704 0.14084,0 0.39168,0.0888 0.55742,0.19745 0.61983,0.40613 3.14797,0.17565 4.74988,-0.43302 1.25402,-0.4765 1.53999,-0.78271 2.16504,-2.31831 0.36056,-0.8858 0.60019,-1.02261 2.04606,-1.16815 1.8091,-0.1821 8.20515,-0.0768 8.65628,0.14249 0.18815,0.0915 0.58315,0.53221 0.8778,0.97946 0.60222,0.91412 1.1647,1.46082 2.28737,2.2232 1.7322,1.17632 2.97573,1.4158 4.15381,0.79994 1.19282,-0.62357 1.83827,-0.39582 3.70141,1.30607 1.49702,1.36744 4.067,4.11345 4.60051,4.9156 0.50105,0.75335 0.55115,1.24375 0.2155,2.10951 -0.19704,0.50823 -0.19864,0.63456 -0.0222,1.74846 0.3204,2.0229 1.16248,3.94119 1.95926,4.46326 0.1636,0.1072 0.51382,0.23375 0.77827,0.28122 0.65456,0.1175 0.88153,0.34948 1.13155,1.15656 0.18419,0.59455 0.2131,1.257 0.2131,4.88363 0,4.75914 0.002,4.7495 -0.95428,5.53282 -0.3036,0.24878 -0.61425,0.45232 -0.69034,0.45232 -0.18215,0 -1.30087,1.59206 -1.77728,2.52925 -0.86386,1.69941 -1.09992,3.27167 -0.58877,3.92149 0.4612,0.58632 0.24326,1.19357 -0.96937,2.70096 -0.74621,0.92759 -3.71231,3.87805 -4.99565,4.9693 l -0.71519,0.60815 -1.99716,0.0963 c -2.08841,0.10074 -3.01768,0.27895 -4.15675,0.79716 -1.07639,0.48969 -1.56808,0.89158 -2.08128,1.70113 -0.26326,0.41529 -0.58903,0.85381 -0.72394,0.97449 -0.33798,0.30234 -2.5433,0.45234 -6.63527,0.4513 l -3.20853,-8.7e-4 -1.21933,-1.18121 z m 8.81507,-5.89289 c 2.10949,-0.34244 4.1794,-1.08038 6.07873,-2.16709 3.06574,-1.75408 5.76822,-4.68497 7.29228,-7.90861 2.81227,-5.94843 2.23648,-12.93391 -1.49819,-18.17607 -0.92381,-1.2967 -3.15682,-3.53226 -4.42894,-4.43399 -3.49146,-2.47489 -7.66731,-3.58033 -12.03266,-3.18531 -4.45592,0.40322 -7.7785,1.98159 -11.03745,5.24325 -3.3256,3.32837 -4.95589,6.7701 -5.35358,11.30199 -0.35657,4.06325 0.93542,8.83154 3.20696,11.83578 0.9829,1.29995 3.22043,3.55778 4.43877,4.47907 1.72166,1.30188 4.58659,2.46098 7.23491,2.92713 1.64798,0.29007 4.5805,0.33039 6.09917,0.0838 z"
       id="path472"
       transform="scale(0.26458333)" /></g></svg>
